<mxfile host="app.diagrams.net" modified="2023-12-03T19:48:22.001Z" agent="Mozilla/5.0 (Windows NT 10.0; Win64; x64) AppleWebKit/537.36 (KHTML, like Gecko) Chrome/119.0.0.0 Safari/537.36" etag="NOunUqMS7kv2gwA_rjeY" version="21.3.2" type="github">
  <diagram name="Page-1" id="prT84nURHDTYSV5WaE4m">
    <mxGraphModel dx="1562" dy="810" grid="0" gridSize="10" guides="1" tooltips="1" connect="1" arrows="1" fold="1" page="1" pageScale="1" pageWidth="1100" pageHeight="850" math="0" shadow="0">
      <root>
        <mxCell id="0" />
        <mxCell id="1" parent="0" />
        <mxCell id="yc_cAi3dx5c36aCPVZQ8-1" value="" style="rounded=0;whiteSpace=wrap;html=1;" vertex="1" parent="1">
          <mxGeometry x="35" y="68" width="732" height="582" as="geometry" />
        </mxCell>
        <mxCell id="yc_cAi3dx5c36aCPVZQ8-3" value="" style="endArrow=none;dashed=1;html=1;rounded=0;" edge="1" parent="1">
          <mxGeometry width="50" height="50" relative="1" as="geometry">
            <mxPoint x="100" y="600" as="sourcePoint" />
            <mxPoint x="95" y="253" as="targetPoint" />
          </mxGeometry>
        </mxCell>
        <mxCell id="yc_cAi3dx5c36aCPVZQ8-4" value="&lt;b&gt;User&lt;/b&gt;" style="shape=umlActor;verticalLabelPosition=bottom;verticalAlign=top;html=1;outlineConnect=0;" vertex="1" parent="1">
          <mxGeometry x="80" y="163" width="30" height="60" as="geometry" />
        </mxCell>
        <mxCell id="yc_cAi3dx5c36aCPVZQ8-5" value=": HomePageUI" style="rounded=0;whiteSpace=wrap;html=1;" vertex="1" parent="1">
          <mxGeometry x="180" y="183" width="160" height="40" as="geometry" />
        </mxCell>
        <mxCell id="yc_cAi3dx5c36aCPVZQ8-6" value=": RegisterController" style="rounded=0;whiteSpace=wrap;html=1;" vertex="1" parent="1">
          <mxGeometry x="345" y="183" width="160" height="40" as="geometry" />
        </mxCell>
        <mxCell id="yc_cAi3dx5c36aCPVZQ8-7" value=": Firebase" style="rounded=0;whiteSpace=wrap;html=1;" vertex="1" parent="1">
          <mxGeometry x="570" y="183" width="160" height="40" as="geometry" />
        </mxCell>
        <mxCell id="yc_cAi3dx5c36aCPVZQ8-8" value="" style="rounded=0;whiteSpace=wrap;html=1;rotation=90;" vertex="1" parent="1">
          <mxGeometry x="75" y="408" width="315" height="10" as="geometry" />
        </mxCell>
        <mxCell id="yc_cAi3dx5c36aCPVZQ8-10" value="" style="rounded=0;whiteSpace=wrap;html=1;rotation=90;" vertex="1" parent="1">
          <mxGeometry x="255" y="413" width="330" height="10" as="geometry" />
        </mxCell>
        <mxCell id="yc_cAi3dx5c36aCPVZQ8-11" value="" style="rounded=0;whiteSpace=wrap;html=1;rotation=90;" vertex="1" parent="1">
          <mxGeometry x="668.13" y="418.63" width="60" height="12.5" as="geometry" />
        </mxCell>
        <mxCell id="yc_cAi3dx5c36aCPVZQ8-12" value="" style="endArrow=classic;html=1;rounded=0;dashed=1;" edge="1" parent="1">
          <mxGeometry width="50" height="50" relative="1" as="geometry">
            <mxPoint x="100" y="303" as="sourcePoint" />
            <mxPoint x="220" y="303" as="targetPoint" />
          </mxGeometry>
        </mxCell>
        <mxCell id="yc_cAi3dx5c36aCPVZQ8-13" value="" style="endArrow=classic;html=1;rounded=0;" edge="1" parent="1">
          <mxGeometry width="50" height="50" relative="1" as="geometry">
            <mxPoint x="241.5" y="304" as="sourcePoint" />
            <mxPoint x="410" y="303" as="targetPoint" />
          </mxGeometry>
        </mxCell>
        <mxCell id="yc_cAi3dx5c36aCPVZQ8-14" value="" style="endArrow=none;html=1;rounded=0;" edge="1" parent="1">
          <mxGeometry width="50" height="50" relative="1" as="geometry">
            <mxPoint x="425" y="303" as="sourcePoint" />
            <mxPoint x="480" y="303" as="targetPoint" />
          </mxGeometry>
        </mxCell>
        <mxCell id="yc_cAi3dx5c36aCPVZQ8-15" value="" style="endArrow=none;html=1;rounded=0;" edge="1" parent="1">
          <mxGeometry width="50" height="50" relative="1" as="geometry">
            <mxPoint x="480" y="303" as="sourcePoint" />
            <mxPoint x="480" y="363" as="targetPoint" />
          </mxGeometry>
        </mxCell>
        <mxCell id="yc_cAi3dx5c36aCPVZQ8-18" value="" style="endArrow=none;dashed=1;html=1;dashPattern=1 3;strokeWidth=2;rounded=0;exitX=0.328;exitY=1.02;exitDx=0;exitDy=0;exitPerimeter=0;entryX=0;entryY=0.5;entryDx=0;entryDy=0;" edge="1" parent="1" source="yc_cAi3dx5c36aCPVZQ8-5" target="yc_cAi3dx5c36aCPVZQ8-8">
          <mxGeometry width="50" height="50" relative="1" as="geometry">
            <mxPoint x="260" y="273" as="sourcePoint" />
            <mxPoint x="260" y="293.71067811865476" as="targetPoint" />
          </mxGeometry>
        </mxCell>
        <mxCell id="yc_cAi3dx5c36aCPVZQ8-19" value="" style="endArrow=none;dashed=1;html=1;dashPattern=1 3;strokeWidth=2;rounded=0;entryX=0;entryY=0.5;entryDx=0;entryDy=0;" edge="1" parent="1" target="yc_cAi3dx5c36aCPVZQ8-10">
          <mxGeometry width="50" height="50" relative="1" as="geometry">
            <mxPoint x="420" y="223" as="sourcePoint" />
            <mxPoint x="243" y="266" as="targetPoint" />
          </mxGeometry>
        </mxCell>
        <mxCell id="yc_cAi3dx5c36aCPVZQ8-20" value="" style="endArrow=none;dashed=1;html=1;dashPattern=1 3;strokeWidth=2;rounded=0;entryX=0;entryY=0.5;entryDx=0;entryDy=0;" edge="1" parent="1" target="yc_cAi3dx5c36aCPVZQ8-11">
          <mxGeometry width="50" height="50" relative="1" as="geometry">
            <mxPoint x="697.63" y="228" as="sourcePoint" />
            <mxPoint x="697.63" y="258" as="targetPoint" />
          </mxGeometry>
        </mxCell>
        <mxCell id="yc_cAi3dx5c36aCPVZQ8-23" value="2: &amp;lt;&amp;lt;user: User&amp;gt;&amp;gt;" style="text;html=1;align=center;verticalAlign=middle;resizable=0;points=[];autosize=1;strokeColor=none;fillColor=none;" vertex="1" parent="1">
          <mxGeometry x="250" y="281" width="120" height="30" as="geometry" />
        </mxCell>
        <mxCell id="yc_cAi3dx5c36aCPVZQ8-24" value="3: registerUser(User)" style="text;html=1;align=center;verticalAlign=middle;resizable=0;points=[];autosize=1;strokeColor=none;fillColor=none;" vertex="1" parent="1">
          <mxGeometry x="470" y="281" width="140" height="30" as="geometry" />
        </mxCell>
        <mxCell id="yc_cAi3dx5c36aCPVZQ8-25" value="4: bufferWriter.write(post_data)" style="text;html=1;align=center;verticalAlign=middle;resizable=0;points=[];autosize=1;strokeColor=none;fillColor=none;" vertex="1" parent="1">
          <mxGeometry x="455" y="398" width="190" height="30" as="geometry" />
        </mxCell>
        <mxCell id="yc_cAi3dx5c36aCPVZQ8-37" value="" style="endArrow=none;dashed=1;html=1;rounded=0;entryX=1;entryY=0.5;entryDx=0;entryDy=0;" edge="1" parent="1" target="yc_cAi3dx5c36aCPVZQ8-11">
          <mxGeometry width="50" height="50" relative="1" as="geometry">
            <mxPoint x="698" y="600" as="sourcePoint" />
            <mxPoint x="700" y="513" as="targetPoint" />
          </mxGeometry>
        </mxCell>
        <mxCell id="yc_cAi3dx5c36aCPVZQ8-49" value="1: User Input Details" style="text;html=1;align=center;verticalAlign=middle;resizable=0;points=[];autosize=1;strokeColor=none;fillColor=none;fontSize=11;" vertex="1" parent="1">
          <mxGeometry x="103" y="268" width="120" height="30" as="geometry" />
        </mxCell>
        <mxCell id="yc_cAi3dx5c36aCPVZQ8-52" value="" style="rounded=0;whiteSpace=wrap;html=1;" vertex="1" parent="1">
          <mxGeometry x="35" y="65" width="103" height="24" as="geometry" />
        </mxCell>
        <mxCell id="yc_cAi3dx5c36aCPVZQ8-53" value="&lt;b&gt;sd&lt;/b&gt; Register User" style="text;html=1;strokeColor=none;fillColor=none;align=center;verticalAlign=middle;whiteSpace=wrap;rounded=0;" vertex="1" parent="1">
          <mxGeometry x="39" y="62" width="96" height="30" as="geometry" />
        </mxCell>
        <mxCell id="yc_cAi3dx5c36aCPVZQ8-54" value="&lt;h1 style=&quot;font-size: 13px;&quot;&gt;&lt;span style=&quot;font-weight: normal;&quot;&gt;&amp;lt;&amp;lt;name, emailid, password, confirm password, date of birth, phone number&amp;gt;&amp;gt;&lt;/span&gt;&lt;br style=&quot;font-size: 13px;&quot;&gt;&lt;/h1&gt;" style="text;html=1;strokeColor=none;fillColor=none;spacing=5;spacingTop=-20;whiteSpace=wrap;overflow=hidden;rounded=0;fontSize=13;verticalAlign=middle;fontStyle=0;fontColor=default;strokeWidth=0;" vertex="1" parent="1">
          <mxGeometry x="103" y="360" width="135" height="120" as="geometry" />
        </mxCell>
        <mxCell id="yc_cAi3dx5c36aCPVZQ8-56" value="" style="rounded=0;whiteSpace=wrap;html=1;rotation=90;" vertex="1" parent="1">
          <mxGeometry x="306.25" y="438.75" width="250" height="12.5" as="geometry" />
        </mxCell>
        <mxCell id="yc_cAi3dx5c36aCPVZQ8-57" value="" style="endArrow=classic;html=1;rounded=0;entryX=0.171;entryY=0.152;entryDx=0;entryDy=0;entryPerimeter=0;" edge="1" parent="1" target="yc_cAi3dx5c36aCPVZQ8-56">
          <mxGeometry width="50" height="50" relative="1" as="geometry">
            <mxPoint x="480" y="363" as="sourcePoint" />
            <mxPoint x="570" y="390" as="targetPoint" />
          </mxGeometry>
        </mxCell>
        <mxCell id="yc_cAi3dx5c36aCPVZQ8-58" value="" style="endArrow=classic;html=1;rounded=0;entryX=0.702;entryY=1.278;entryDx=0;entryDy=0;entryPerimeter=0;" edge="1" parent="1" target="yc_cAi3dx5c36aCPVZQ8-11">
          <mxGeometry width="50" height="50" relative="1" as="geometry">
            <mxPoint x="440" y="435" as="sourcePoint" />
            <mxPoint x="570" y="390" as="targetPoint" />
          </mxGeometry>
        </mxCell>
        <mxCell id="yc_cAi3dx5c36aCPVZQ8-59" value="" style="endArrow=none;dashed=1;html=1;dashPattern=1 3;strokeWidth=2;rounded=0;entryX=0;entryY=0.5;entryDx=0;entryDy=0;" edge="1" parent="1">
          <mxGeometry width="50" height="50" relative="1" as="geometry">
            <mxPoint x="420" y="583" as="sourcePoint" />
            <mxPoint x="420" y="613" as="targetPoint" />
          </mxGeometry>
        </mxCell>
        <mxCell id="yc_cAi3dx5c36aCPVZQ8-60" value="" style="endArrow=none;dashed=1;html=1;dashPattern=1 3;strokeWidth=2;rounded=0;entryX=0;entryY=0.5;entryDx=0;entryDy=0;" edge="1" parent="1">
          <mxGeometry width="50" height="50" relative="1" as="geometry">
            <mxPoint x="233" y="574" as="sourcePoint" />
            <mxPoint x="233" y="604" as="targetPoint" />
          </mxGeometry>
        </mxCell>
        <mxCell id="yc_cAi3dx5c36aCPVZQ8-61" value="" style="endArrow=classic;html=1;rounded=0;dashed=1;" edge="1" parent="1">
          <mxGeometry width="50" height="50" relative="1" as="geometry">
            <mxPoint x="220" y="550" as="sourcePoint" />
            <mxPoint x="100" y="550" as="targetPoint" />
          </mxGeometry>
        </mxCell>
        <mxCell id="yc_cAi3dx5c36aCPVZQ8-62" value="5:Patient Details Added" style="text;html=1;strokeColor=none;fillColor=none;align=center;verticalAlign=middle;whiteSpace=wrap;rounded=0;" vertex="1" parent="1">
          <mxGeometry x="113" y="520" width="100" height="30" as="geometry" />
        </mxCell>
      </root>
    </mxGraphModel>
  </diagram>
</mxfile>
